PathFileType  4	(X/Y/Z) c:\opencap-core-main\examples\Data\81a20db3-8b24-463d-8a5a-854c37a24678\MarkerData\PreAugmentation
DataRate	CameraRate	NumFrames	NumMarkers	Units	OrigDataRate	OrigDataStartFrame	OrigNumFrames
60.0	60.0	15	20	m	60.0	75	592
Frame#	Time	Neck			RShoulder			RElbow			RWrist			LShoulder			LElbow			LWrist			midHip			RHip			RKnee			RAnkle			LHip			LKnee			LAnkle			LBigToe			LSmallToe			LHeel			RBigToe			RSmallToe			RHeel			
		X1	Y1	Z1	X2	Y2	Z2	X3	Y3	Z3	X4	Y4	Z4	X5	Y5	Z5	X6	Y6	Z6	X7	Y7	Z7	X8	Y8	Z8	X9	Y9	Z9	X10	Y10	Z10	X11	Y11	Z11	X12	Y12	Z12	X13	Y13	Z13	X14	Y14	Z14	X15	Y15	Z15	X16	Y16	Z16	X17	Y17	Z17	X18	Y18	Z18	X19	Y19	Z19	X20	Y20	Z20	

75	1.2333333	0.2876900	0.7533400	-0.0998200	0.3017600	0.7352400	0.0678000	0.2902800	0.4246800	0.1071400	0.4036200	0.2014500	0.1349200	0.2974700	0.7517600	-0.2895400	0.2988200	0.4504200	-0.3019800	0.4196500	0.1922700	-0.3161400	-0.1240800	0.6379400	-0.1135700	-0.1306200	0.6377700	0.0224500	0.0598200	0.2852700	0.0109500	-0.0181900	-0.1397300	0.0306900	-0.1176300	0.6444400	-0.2391300	0.0711500	0.2808900	-0.2517800	-0.0409300	-0.1390700	-0.2564100	0.1352000	-0.2082400	-0.2604800	0.0898100	-0.2066600	-0.3252100	-0.0661900	-0.1716100	-0.2625100	0.1611400	-0.1985500	0.0435100	0.1297700	-0.1873900	0.0879800	-0.0654900	-0.1922700	0.0381800
76	1.2500000	0.2894000	0.7490000	-0.1017700	0.3047400	0.7338800	0.0631200	0.2904700	0.4149600	0.1096300	0.4142900	0.1877400	0.1237900	0.2974700	0.7363800	-0.2860000	0.3086700	0.4320100	-0.3073100	0.4242800	0.1877200	-0.3168400	-0.1238400	0.6364000	-0.1123800	-0.1319100	0.6382700	0.0261400	0.0646100	0.2817000	0.0083900	-0.0180600	-0.1398000	0.0305900	-0.1182200	0.6425700	-0.2421100	0.0791400	0.2806600	-0.2530500	-0.0409000	-0.1378000	-0.2573500	0.1325100	-0.2118700	-0.2552800	0.0862000	-0.2099100	-0.3199000	-0.0680700	-0.1717900	-0.2632900	0.1634000	-0.1980300	0.0415100	0.1297300	-0.1877700	0.0875500	-0.0653900	-0.1924000	0.0381800
77	1.2666667	0.2922200	0.7428300	-0.1059500	0.3062300	0.7321000	0.0634700	0.2920600	0.4063200	0.1161200	0.4215000	0.1750800	0.1073500	0.2971300	0.7285300	-0.2834400	0.3150300	0.4151600	-0.3126500	0.4280500	0.1826100	-0.3171200	-0.1239800	0.6334100	-0.1111000	-0.1331900	0.6364100	0.0253900	0.0676200	0.2807000	0.0060700	-0.0180900	-0.1397900	0.0306400	-0.1156700	0.6398200	-0.2451200	0.0842900	0.2762800	-0.2545900	-0.0388300	-0.1367000	-0.2553100	0.1312600	-0.2141900	-0.2528600	0.0862800	-0.2101400	-0.3197600	-0.0679500	-0.1740900	-0.2651400	0.1637200	-0.1986100	0.0408100	0.1276200	-0.1882600	0.0907400	-0.0653800	-0.1923700	0.0381400
78	1.2833333	0.2935300	0.7330700	-0.1073600	0.3043800	0.7244900	0.0685000	0.2948400	0.3997900	0.1232500	0.4266500	0.1677900	0.1001900	0.2971800	0.7257900	-0.2836500	0.3181300	0.4045600	-0.3125500	0.4319500	0.1769500	-0.3134900	-0.1240400	0.6316000	-0.1102900	-0.1332800	0.6318600	0.0249000	0.0663100	0.2792000	0.0061900	-0.0183300	-0.1397900	0.0309400	-0.1118200	0.6384600	-0.2429900	0.0855200	0.2695400	-0.2499400	-0.0357400	-0.1345300	-0.2526800	0.1280700	-0.2149500	-0.2494900	0.0849000	-0.2101500	-0.3188200	-0.0675200	-0.1758600	-0.2664300	0.1613900	-0.1994300	0.0395500	0.1272400	-0.1882600	0.0911700	-0.0652500	-0.1924500	0.0381000
79	1.3000000	0.2920900	0.7227200	-0.1046100	0.3015600	0.7163600	0.0711300	0.2967800	0.3954900	0.1249100	0.4301700	0.1648200	0.1012400	0.2972200	0.7232600	-0.2835900	0.3216300	0.3977100	-0.3081800	0.4332300	0.1715200	-0.3100600	-0.1239600	0.6318300	-0.1102300	-0.1328900	0.6277500	0.0251600	0.0657400	0.2750400	0.0061600	-0.0178900	-0.1398000	0.0304900	-0.1112200	0.6384100	-0.2381200	0.0861900	0.2665900	-0.2441600	-0.0355700	-0.1330900	-0.2538700	0.1228300	-0.2165200	-0.2441700	0.0821100	-0.2113900	-0.3158500	-0.0673800	-0.1774900	-0.2677200	0.1568000	-0.1992200	0.0389600	0.1282100	-0.1879600	0.0897700	-0.0651300	-0.1925600	0.0380600
80	1.3166667	0.2911700	0.7119800	-0.1029500	0.3029600	0.7112800	0.0655000	0.2983700	0.3914200	0.1211500	0.4314000	0.1631700	0.1015800	0.2970700	0.7190900	-0.2826100	0.3233200	0.3956600	-0.3009100	0.4334100	0.1626100	-0.3097400	-0.1242300	0.6322600	-0.1108100	-0.1344600	0.6247000	0.0242600	0.0696500	0.2710900	0.0060000	-0.0160700	-0.1397000	0.0285600	-0.1112600	0.6392300	-0.2379400	0.0873500	0.2671300	-0.2455700	-0.0387400	-0.1338200	-0.2579900	0.1183700	-0.2197700	-0.2405700	0.0799100	-0.2121200	-0.3137600	-0.0672300	-0.1799800	-0.2697300	0.1536400	-0.1970400	0.0406900	0.1273300	-0.1881600	0.0905800	-0.0648300	-0.1928600	0.0381000
81	1.3333333	0.2921500	0.7023800	-0.1035300	0.3069100	0.7086800	0.0573200	0.3006600	0.3866000	0.1166400	0.4325400	0.1608100	0.1008500	0.2970200	0.7162700	-0.2827200	0.3227900	0.3970400	-0.2952900	0.4331100	0.1529600	-0.3114700	-0.1243500	0.6302600	-0.1107900	-0.1358000	0.6202200	0.0234600	0.0764500	0.2705100	0.0065000	-0.0150900	-0.1396500	0.0275800	-0.1085400	0.6399300	-0.2424900	0.0882100	0.2665500	-0.2489200	-0.0408100	-0.1346700	-0.2603700	0.1174200	-0.2231800	-0.2412900	0.0781800	-0.2127300	-0.3121700	-0.0671100	-0.1816400	-0.2710600	0.1529400	-0.1936500	0.0440900	0.1257300	-0.1884900	0.0924300	-0.0647300	-0.1929600	0.0381700
82	1.3500000	0.2921200	0.6966400	-0.1014200	0.3077700	0.7064100	0.0555200	0.3020300	0.3830000	0.1142500	0.4347200	0.1573700	0.1024600	0.2972400	0.7155800	-0.2842300	0.3239500	0.3963800	-0.2978200	0.4334500	0.1437500	-0.3126700	-0.1219800	0.6260500	-0.1086600	-0.1295600	0.6151800	0.0272200	0.0852200	0.2726800	0.0050600	-0.0164200	-0.1396900	0.0289800	-0.1061300	0.6403000	-0.2456500	0.0891900	0.2635400	-0.2473100	-0.0391000	-0.1339000	-0.2584800	0.1179100	-0.2248100	-0.2428300	0.0754400	-0.2140300	-0.3093600	-0.0669900	-0.1818500	-0.2710900	0.1519300	-0.1908700	0.0481700	0.1256500	-0.1884400	0.0931400	-0.0647300	-0.1929700	0.0382200
83	1.3666667	0.2912900	0.6926300	-0.0985400	0.3060800	0.7015800	0.0596000	0.3023100	0.3795100	0.1119200	0.4363500	0.1541900	0.1062800	0.2977400	0.7114100	-0.2867600	0.3293400	0.3877000	-0.3055900	0.4349200	0.1342400	-0.3116000	-0.1169500	0.6240200	-0.1064900	-0.1177500	0.6125800	0.0339100	0.0950800	0.2745800	0.0014100	-0.0164200	-0.1397200	0.0289600	-0.1057200	0.6397600	-0.2457700	0.0901700	0.2592300	-0.2447200	-0.0355700	-0.1331100	-0.2538900	0.1163100	-0.2253800	-0.2412600	0.0730100	-0.2163300	-0.3056700	-0.0671100	-0.1814900	-0.2708600	0.1504900	-0.1898300	0.0508400	0.1258600	-0.1884300	0.0928100	-0.0649200	-0.1927500	0.0382000
84	1.3833333	0.2921800	0.6896400	-0.1004200	0.3041900	0.6968900	0.0669600	0.3038200	0.3724000	0.1059500	0.4384700	0.1522400	0.1119500	0.2985600	0.7037500	-0.2900900	0.3345000	0.3771100	-0.3114300	0.4370000	0.1277500	-0.3094900	-0.1131900	0.6255400	-0.1066500	-0.1129700	0.6137900	0.0358100	0.1015100	0.2724000	-0.0027000	-0.0136700	-0.1395700	0.0259900	-0.1060100	0.6395200	-0.2454100	0.0904800	0.2559500	-0.2436100	-0.0340700	-0.1344700	-0.2504000	0.1131200	-0.2261600	-0.2378900	0.0721000	-0.2189800	-0.3025100	-0.0671100	-0.1814600	-0.2708600	0.1501200	-0.1900000	0.0510900	0.1240500	-0.1890900	0.0908200	-0.0648500	-0.1927200	0.0382000
85	1.4000000	0.2938000	0.6880800	-0.1041200	0.3027900	0.6962900	0.0740100	0.3064200	0.3637200	0.0988800	0.4422500	0.1499700	0.1181100	0.2989400	0.6996000	-0.2922700	0.3366800	0.3700700	-0.3139200	0.4383100	0.1262800	-0.3080000	-0.1125100	0.6259000	-0.1070100	-0.1168600	0.6136800	0.0318500	0.1012900	0.2649300	-0.0081700	-0.0115300	-0.1395100	0.0236800	-0.1060300	0.6392800	-0.2454900	0.0914400	0.2560800	-0.2410000	-0.0361600	-0.1364400	-0.2517800	0.1117400	-0.2272200	-0.2360700	0.0722000	-0.2205900	-0.3010200	-0.0670300	-0.1815500	-0.2709300	0.1503600	-0.1902900	0.0506200	0.1208300	-0.1902500	0.0875600	-0.0648900	-0.1926000	0.0382000
86	1.4166667	0.2943100	0.6852300	-0.1048000	0.3042600	0.6963200	0.0732700	0.3080100	0.3573900	0.0968900	0.4453400	0.1452400	0.1231300	0.2992500	0.6952800	-0.2928500	0.3383100	0.3640000	-0.3167000	0.4399900	0.1243400	-0.3071000	-0.1139500	0.6230100	-0.1060000	-0.1218300	0.6110800	0.0270700	0.0972200	0.2566900	-0.0150400	-0.0114300	-0.1395400	0.0235900	-0.1061800	0.6397900	-0.2455300	0.0939400	0.2574400	-0.2368700	-0.0389400	-0.1359900	-0.2563700	0.1115000	-0.2273600	-0.2362800	0.0720100	-0.2204400	-0.3010200	-0.0670000	-0.1815300	-0.2709200	0.1503800	-0.1903200	0.0505400	0.1185800	-0.1910000	0.0853600	-0.0650700	-0.1923400	0.0381300
87	1.4333333	0.2939000	0.6805700	-0.1031300	0.3088700	0.6947500	0.0647900	0.3093000	0.3514500	0.0983600	0.4472200	0.1383000	0.1292900	0.2998000	0.6872100	-0.2945100	0.3411200	0.3554300	-0.3201400	0.4430000	0.1193800	-0.3077300	-0.1173200	0.6210500	-0.1051200	-0.1252900	0.6092200	0.0236200	0.0951600	0.2520600	-0.0205300	-0.0118600	-0.1394500	0.0239900	-0.1064200	0.6403300	-0.2455400	0.0955400	0.2583600	-0.2345700	-0.0390700	-0.1339900	-0.2583200	0.1115800	-0.2268600	-0.2362000	0.0719500	-0.2202300	-0.3011400	-0.0668100	-0.1817100	-0.2709100	0.1503100	-0.1902700	0.0506700	0.1185900	-0.1909800	0.0853000	-0.0649300	-0.1923800	0.0380800
88	1.4500000	0.2933900	0.6775100	-0.1017900	0.3148300	0.6915000	0.0576300	0.3114600	0.3458100	0.0976000	0.4510600	0.1302300	0.1350900	0.3012300	0.6787500	-0.2985000	0.3428900	0.3464700	-0.3209200	0.4448600	0.1156500	-0.3097800	-0.1205300	0.6222700	-0.1050900	-0.1289800	0.6099100	0.0200800	0.0972400	0.2509300	-0.0246100	-0.0118200	-0.1394400	0.0240100	-0.1060600	0.6379500	-0.2460700	0.0974500	0.2583200	-0.2366500	-0.0378700	-0.1335800	-0.2568900	0.1109900	-0.2250500	-0.2348200	0.0716800	-0.2203000	-0.3008300	-0.0667400	-0.1820500	-0.2711500	0.1503000	-0.1900800	0.0509300	0.1209900	-0.1902700	0.0872700	-0.0647300	-0.1927800	0.0383100
89	1.4666667	0.2949400	0.6772900	-0.1054600	0.3177700	0.6934500	0.0546000	0.3130400	0.3424700	0.0957300	0.4555400	0.1224100	0.1352300	0.3028100	0.6719500	-0.3014600	0.3430100	0.3393600	-0.3188200	0.4450900	0.1143800	-0.3112300	-0.1215000	0.6234400	-0.1065700	-0.1326200	0.6116200	0.0166500	0.0999900	0.2513300	-0.0278500	-0.0116900	-0.1394700	0.0239600	-0.1057800	0.6348900	-0.2468800	0.1002900	0.2585600	-0.2409000	-0.0371900	-0.1351200	-0.2544400	0.1108400	-0.2241800	-0.2341300	0.0718200	-0.2202300	-0.3009600	-0.0667800	-0.1819500	-0.2710900	0.1502500	-0.1902400	0.0508000	0.1238300	-0.1891800	0.0910300	-0.0649100	-0.1929700	0.0386600
